<svg width="181" height="16" viewBox="0 0 181 16" fill="none" xmlns="http://www.w3.org/2000/svg">
<g clip-path="url(#clip0_3_31)">
<path d="M8.00001 14.6666C4.31801 14.6666 1.33334 11.6819 1.33334 7.99992C1.33334 4.31792 4.31801 1.33325 8.00001 1.33325C11.682 1.33325 14.6667 4.31792 14.6667 7.99992C14.6667 11.6819 11.682 14.6666 8.00001 14.6666ZM8.00001 13.3333C9.4145 13.3333 10.7711 12.7713 11.7712 11.7712C12.7714 10.771 13.3333 9.41441 13.3333 7.99992C13.3333 6.58543 12.7714 5.22888 11.7712 4.22868C10.7711 3.22849 9.4145 2.66659 8.00001 2.66659C6.58552 2.66659 5.22897 3.22849 4.22877 4.22868C3.22858 5.22888 2.66668 6.58543 2.66668 7.99992C2.66668 9.41441 3.22858 10.771 4.22877 11.7712C5.22897 12.7713 6.58552 13.3333 8.00001 13.3333ZM8.66668 7.99992H11.3333V9.33325H7.33334V4.66659H8.66668V7.99992Z" fill="#393939"/>
</g>
<path d="M37.432 2.732L35.356 9.2L33.832 3.848H32.98L31.456 9.2L29.38 2.732H28.18L30.976 11H31.948L33.4 5.84L34.864 11H35.836L38.632 2.732H37.432ZM39.8859 7.76C40.0179 6.812 40.7379 6.26 41.6619 6.26C42.5739 6.26 43.2339 6.812 43.3659 7.76H39.8859ZM44.4459 8.18C44.4459 6.404 43.2579 5.276 41.6619 5.276C40.0659 5.276 38.7939 6.404 38.7939 8.18C38.7939 9.956 40.0659 11.12 41.6619 11.12C42.7539 11.12 43.7619 10.628 44.2419 9.632C43.9419 9.5 43.5939 9.404 43.3059 9.272C42.9819 9.836 42.3699 10.136 41.6979 10.136C40.7379 10.136 40.0179 9.56 39.8859 8.612H44.4339C44.4459 8.48 44.4459 8.312 44.4459 8.18ZM50.2619 11H51.3539V2.348H50.2619V6.236C49.8899 5.6 49.1099 5.276 48.2819 5.276C46.7459 5.276 45.4619 6.404 45.4619 8.192C45.4619 9.968 46.7579 11.12 48.2939 11.12C49.0739 11.12 49.8899 10.76 50.2619 10.136V11ZM50.2499 8.18C50.2499 9.368 49.3859 10.052 48.3899 10.052C47.3819 10.052 46.5779 9.284 46.5779 8.18C46.5779 7.076 47.3819 6.344 48.3899 6.344C49.3019 6.344 50.2499 6.98 50.2499 8.18ZM54.2735 7.976C54.2735 6.788 55.0655 6.344 55.8575 6.344C56.6255 6.344 57.0935 6.884 57.0935 7.832V11H58.1855V7.76C58.1855 6.176 57.4295 5.276 56.0255 5.276C55.4135 5.276 54.5975 5.564 54.2735 6.236V5.396H53.1815V11H54.2735V7.976ZM60.6633 7.76C60.7952 6.812 61.5153 6.26 62.4393 6.26C63.3513 6.26 64.0113 6.812 64.1433 7.76H60.6633ZM65.2233 8.18C65.2233 6.404 64.0353 5.276 62.4393 5.276C60.8433 5.276 59.5713 6.404 59.5713 8.18C59.5713 9.956 60.8433 11.12 62.4393 11.12C63.5313 11.12 64.5393 10.628 65.0193 9.632C64.7193 9.5 64.3713 9.404 64.0833 9.272C63.7593 9.836 63.1473 10.136 62.4753 10.136C61.5153 10.136 60.7952 9.56 60.6633 8.612H65.2113C65.2233 8.48 65.2233 8.312 65.2233 8.18ZM68.6512 8.708C69.0712 8.804 69.4072 8.996 69.3952 9.416C69.3832 9.836 69.0592 10.112 68.5432 10.148C68.1952 10.172 67.9072 10.112 67.6552 9.956C67.3792 9.824 67.2352 9.56 67.1992 9.32H66.2032C66.2392 10.472 67.2832 11.12 68.2912 11.12C69.4552 11.12 70.4632 10.496 70.4632 9.44C70.4632 8.804 70.1632 8.096 69.0112 7.808L68.1832 7.604C67.8952 7.52 67.6312 7.4 67.5232 7.172C67.4632 7.052 67.4632 6.908 67.5112 6.728C67.5952 6.428 67.9312 6.224 68.3512 6.224C68.7832 6.224 69.1672 6.44 69.2272 6.86H70.2712C70.1752 5.72 69.2752 5.276 68.3272 5.276C67.3192 5.276 66.4792 5.888 66.3832 6.704C66.2872 7.748 66.8632 8.252 67.8832 8.528L68.6512 8.708ZM76.3127 11H77.4047V2.348H76.3127V6.236C75.9407 5.6 75.1607 5.276 74.3327 5.276C72.7967 5.276 71.5127 6.404 71.5127 8.192C71.5127 9.968 72.8087 11.12 74.3447 11.12C75.1247 11.12 75.9407 10.76 76.3127 10.136V11ZM76.3007 8.18C76.3007 9.368 75.4367 10.052 74.4407 10.052C73.4327 10.052 72.6287 9.284 72.6287 8.18C72.6287 7.076 73.4327 6.344 74.4407 6.344C75.3527 6.344 76.3007 6.98 76.3007 8.18ZM83.6723 11H84.7523V5.396H83.6723V6.236C83.2883 5.6 82.4843 5.276 81.7043 5.276C80.1683 5.276 78.8603 6.404 78.8603 8.192C78.8603 9.968 80.1683 11.12 81.7043 11.12C82.4843 11.12 83.3003 10.76 83.6723 10.136V11ZM83.6603 8.18C83.6603 9.368 82.7963 10.052 81.8003 10.052C80.7923 10.052 79.9763 9.284 79.9763 8.18C79.9763 7.076 80.7923 6.344 81.8003 6.344C82.7123 6.344 83.6603 6.98 83.6603 8.18ZM88.092 13.724L91.572 5.396H90.408L88.728 9.452L87.048 5.396H85.884L88.128 10.832L86.952 13.724H88.092ZM92.2884 12.512C92.8044 12.092 93.3924 11.12 93.4884 9.62H92.3364C92.3724 10.772 91.9884 11.6 91.5204 12.26L92.2884 12.512ZM99.2916 11H100.372V3.092L98.0196 3.944V4.976L99.2916 4.532V11ZM102.315 7.1C102.315 9.308 102.903 11.108 105.159 11.108C107.415 11.108 107.991 9.308 107.991 7.1C107.991 4.868 107.415 3.068 105.159 3.068C102.903 3.068 102.315 4.868 102.315 7.1ZM103.395 7.1C103.395 5.468 103.755 4.148 105.159 4.148C106.563 4.148 106.923 5.468 106.923 7.1C106.923 8.72 106.563 10.04 105.159 10.04C103.755 10.04 103.395 8.72 103.395 7.1ZM110.706 13.88C110.994 13.94 111.378 14.012 111.606 14.012C113.466 14.012 114.15 12.776 114.15 11.324V2.732H113.034V11.324C113.034 12.188 112.65 12.92 111.606 12.92C111.51 12.92 110.994 12.884 110.814 12.824L110.706 13.88ZM120.516 11H121.596V5.396H120.516V6.236C120.132 5.6 119.328 5.276 118.548 5.276C117.012 5.276 115.704 6.404 115.704 8.192C115.704 9.968 117.012 11.12 118.548 11.12C119.328 11.12 120.144 10.76 120.516 10.136V11ZM120.504 8.18C120.504 9.368 119.64 10.052 118.644 10.052C117.636 10.052 116.82 9.284 116.82 8.18C116.82 7.076 117.636 6.344 118.644 6.344C119.556 6.344 120.504 6.98 120.504 8.18ZM124.516 7.976C124.516 6.788 125.308 6.344 126.1 6.344C126.868 6.344 127.336 6.884 127.336 7.832V11H128.428V7.76C128.428 6.176 127.672 5.276 126.268 5.276C125.656 5.276 124.84 5.564 124.516 6.236V5.396H123.424V11H124.516V7.976ZM134.013 8.42C134.013 9.62 133.221 10.052 132.429 10.052C131.661 10.052 131.205 9.512 131.205 8.564V5.396H130.113V8.636C130.101 10.22 130.869 11.12 132.273 11.12C132.885 11.12 133.665 10.832 134.013 10.16V11H135.105V5.396H134.013V8.42ZM141.364 11H142.444V5.396H141.364V6.236C140.98 5.6 140.176 5.276 139.396 5.276C137.86 5.276 136.552 6.404 136.552 8.192C136.552 9.968 137.86 11.12 139.396 11.12C140.176 11.12 140.992 10.76 141.364 10.136V11ZM141.352 8.18C141.352 9.368 140.488 10.052 139.492 10.052C138.484 10.052 137.668 9.284 137.668 8.18C137.668 7.076 138.484 6.344 139.492 6.344C140.404 6.344 141.352 6.98 141.352 8.18ZM145.363 8.96C145.363 7.472 145.819 6.32 146.899 6.32C147.127 6.32 147.427 6.368 147.727 6.512L147.895 5.492C147.739 5.384 147.319 5.276 146.923 5.276C146.191 5.276 145.651 5.66 145.363 6.656V5.396H144.271V11H145.363V8.96ZM150.518 13.724L153.998 5.396H152.834L151.154 9.452L149.474 5.396H148.31L150.554 10.832L149.378 13.724H150.518ZM157.732 10.52V11H162.568V9.92H159.58C160.672 8.636 160.684 8.588 161.704 7.412C162.22 6.836 162.556 6.152 162.556 5.384C162.556 4.004 161.464 3.068 160.096 3.068C158.884 3.068 157.828 3.86 157.636 5.132L158.68 5.384C158.788 4.604 159.376 4.148 160.096 4.148C160.864 4.148 161.488 4.616 161.488 5.384C161.488 5.828 161.26 6.248 160.912 6.668L157.732 10.52ZM164.132 7.1C164.132 9.308 164.72 11.108 166.976 11.108C169.232 11.108 169.808 9.308 169.808 7.1C169.808 4.868 169.232 3.068 166.976 3.068C164.72 3.068 164.132 4.868 164.132 7.1ZM165.212 7.1C165.212 5.468 165.572 4.148 166.976 4.148C168.38 4.148 168.74 5.468 168.74 7.1C168.74 8.72 168.38 10.04 166.976 10.04C165.572 10.04 165.212 8.72 165.212 7.1ZM171.325 10.52V11H176.161V9.92H173.173C174.265 8.636 174.277 8.588 175.297 7.412C175.813 6.836 176.149 6.152 176.149 5.384C176.149 4.004 175.057 3.068 173.689 3.068C172.477 3.068 171.421 3.86 171.229 5.132L172.273 5.384C172.381 4.604 172.969 4.148 173.689 4.148C174.457 4.148 175.081 4.616 175.081 5.384C175.081 5.828 174.853 6.248 174.505 6.668L171.325 10.52ZM178.71 11H179.79V3.092L177.438 3.944V4.976L178.71 4.532V11Z" fill="#393939"/>
<defs>
<clipPath id="clip0_3_31">
<rect width="16" height="16" fill="white"/>
</clipPath>
</defs>
</svg>
