<?xml version="1.0" encoding="UTF-8"?>
<svg version="1.1" xmlns="http://www.w3.org/2000/svg" width="288" height="288">
<path d="M0 0 C0.82564453 0.23605957 1.65128906 0.47211914 2.50195312 0.71533203 C39.01820818 11.58193057 70.84594128 36.69142384 89.21191406 70.21191406 C95.21658164 81.67980478 99.69137727 93.49616326 103 106 C103.3403125 107.24652344 103.680625 108.49304688 104.03125 109.77734375 C108.79585535 131.15189274 108.00057954 157.03027912 102 178 C101.76394043 178.82564453 101.52788086 179.65128906 101.28466797 180.50195312 C90.41806943 217.01820818 65.30857616 248.84594128 31.78808594 267.21191406 C20.32019522 273.21658164 8.50383674 277.69137727 -4 281 C-5.24652344 281.3403125 -6.49304688 281.680625 -7.77734375 282.03125 C-29.15189274 286.79585535 -55.03027912 286.00057954 -76 280 C-76.82564453 279.76394043 -77.65128906 279.52788086 -78.50195312 279.28466797 C-115.01820818 268.41806943 -146.84594128 243.30857616 -165.21191406 209.78808594 C-171.21658164 198.32019522 -175.69137727 186.50383674 -179 174 C-179.51046875 172.13021484 -179.51046875 172.13021484 -180.03125 170.22265625 C-184.79585535 148.84810726 -184.00057954 122.96972088 -178 102 C-177.76394043 101.17435547 -177.52788086 100.34871094 -177.28466797 99.49804688 C-166.41806943 62.98179182 -141.30857616 31.15405872 -107.78808594 12.78808594 C-96.32019522 6.78341836 -84.50383674 2.30862273 -72 -1 C-70.75347656 -1.3403125 -69.50695312 -1.680625 -68.22265625 -2.03125 C-46.84810726 -6.79585535 -20.96972088 -6.00057954 0 0 Z " fill="#F65050" transform="translate(182,4)"/>
<path d="M0 0 C0.76183594 -0.01417969 1.52367188 -0.02835938 2.30859375 -0.04296875 C4.79597315 0.21137334 6.41058106 0.94732804 8.5625 2.1875 C8.5625 2.8475 8.5625 3.5075 8.5625 4.1875 C9.2225 4.1875 9.8825 4.1875 10.5625 4.1875 C13.5625 7.64903846 13.5625 7.64903846 13.5625 10.1875 C14.8825 10.5175 16.2025 10.8475 17.5625 11.1875 C17.5625 11.8475 17.5625 12.5075 17.5625 13.1875 C18.2225 13.1875 18.8825 13.1875 19.5625 13.1875 C22.5625 16.64903846 22.5625 16.64903846 22.5625 19.1875 C23.2225 19.1875 23.8825 19.1875 24.5625 19.1875 C24.5625 19.8475 24.5625 20.5075 24.5625 21.1875 C25.8825 21.5175 27.2025 21.8475 28.5625 22.1875 C28.5625 23.1775 28.5625 24.1675 28.5625 25.1875 C29.34625 25.496875 30.13 25.80625 30.9375 26.125 C33.5625 27.1875 33.5625 27.1875 35.5625 28.1875 C35.5625 29.1775 35.5625 30.1675 35.5625 31.1875 C36.2225 31.1875 36.8825 31.1875 37.5625 31.1875 C37.5625 32.1775 37.5625 33.1675 37.5625 34.1875 C38.34625 34.496875 39.13 34.80625 39.9375 35.125 C42.5625 36.1875 42.5625 36.1875 44.5625 37.1875 C44.5625 38.1775 44.5625 39.1675 44.5625 40.1875 C45.2225 40.1875 45.8825 40.1875 46.5625 40.1875 C46.5625 41.1775 46.5625 42.1675 46.5625 43.1875 C47.201875 43.455625 47.84125 43.72375 48.5 44 C50.5625 45.1875 50.5625 45.1875 51.5625 48.1875 C53.57758358 48.92073796 53.57758358 48.92073796 55.5625 49.1875 C55.5625 49.8475 55.5625 50.5075 55.5625 51.1875 C56.2225 51.1875 56.8825 51.1875 57.5625 51.1875 C60.5625 54.64903846 60.5625 54.64903846 60.5625 57.1875 C62.5425 57.6825 62.5425 57.6825 64.5625 58.1875 C64.5625 58.8475 64.5625 59.5075 64.5625 60.1875 C65.2225 60.1875 65.8825 60.1875 66.5625 60.1875 C69.5625 63.64903846 69.5625 63.64903846 69.5625 66.1875 C70.2225 66.1875 70.8825 66.1875 71.5625 66.1875 C71.5625 66.8475 71.5625 67.5075 71.5625 68.1875 C73.5425 68.6825 73.5425 68.6825 75.5625 69.1875 C75.5625 70.1775 75.5625 71.1675 75.5625 72.1875 C76.738125 72.6515625 76.738125 72.6515625 77.9375 73.125 C80.5625 74.1875 80.5625 74.1875 82.5625 75.1875 C82.5625 76.1775 82.5625 77.1675 82.5625 78.1875 C83.2225 78.1875 83.8825 78.1875 84.5625 78.1875 C84.5625 79.1775 84.5625 80.1675 84.5625 81.1875 C85.738125 81.6515625 85.738125 81.6515625 86.9375 82.125 C89.5625 83.1875 89.5625 83.1875 91.5625 84.1875 C91.5625 85.1775 91.5625 86.1675 91.5625 87.1875 C92.2225 87.1875 92.8825 87.1875 93.5625 87.1875 C93.5625 88.1775 93.5625 89.1675 93.5625 90.1875 C94.201875 90.455625 94.84125 90.72375 95.5 91 C97.5625 92.1875 97.5625 92.1875 98.5625 95.1875 C100.57758358 95.92073796 100.57758358 95.92073796 102.5625 96.1875 C102.5625 96.8475 102.5625 97.5075 102.5625 98.1875 C103.2225 98.1875 103.8825 98.1875 104.5625 98.1875 C107.5625 101.64903846 107.5625 101.64903846 107.5625 104.1875 C108.8825 104.5175 110.2025 104.8475 111.5625 105.1875 C111.5625 105.8475 111.5625 106.5075 111.5625 107.1875 C112.2225 107.1875 112.8825 107.1875 113.5625 107.1875 C116.5625 110.64903846 116.5625 110.64903846 116.5625 113.1875 C117.2225 113.1875 117.8825 113.1875 118.5625 113.1875 C118.5625 113.8475 118.5625 114.5075 118.5625 115.1875 C119.8825 115.5175 121.2025 115.8475 122.5625 116.1875 C122.5625 117.1775 122.5625 118.1675 122.5625 119.1875 C123.738125 119.6515625 123.738125 119.6515625 124.9375 120.125 C127.5625 121.1875 127.5625 121.1875 129.5625 122.1875 C129.5625 123.1775 129.5625 124.1675 129.5625 125.1875 C130.2225 125.1875 130.8825 125.1875 131.5625 125.1875 C134.25470991 129.80676543 134.92580631 133.11210353 134.8125 138.4375 C134.79703125 139.65953125 134.7815625 140.8815625 134.765625 142.140625 C134.5625 145.1875 134.5625 145.1875 133.5625 147.1875 C132.9025 147.1875 132.2425 147.1875 131.5625 147.1875 C131.5625 147.8475 131.5625 148.5075 131.5625 149.1875 C130.9025 149.1875 130.2425 149.1875 129.5625 149.1875 C129.5625 149.8475 129.5625 150.5075 129.5625 151.1875 C128.9025 151.1875 128.2425 151.1875 127.5625 151.1875 C127.2325 152.5075 126.9025 153.8275 126.5625 155.1875 C125.9025 155.1875 125.2425 155.1875 124.5625 155.1875 C124.5625 155.8475 124.5625 156.5075 124.5625 157.1875 C123.9025 157.1875 123.2425 157.1875 122.5625 157.1875 C122.5625 157.8475 122.5625 158.5075 122.5625 159.1875 C116.65975627 160.90971229 110.08470527 161.22605511 104.375 158.875 C103.776875 158.318125 103.17875 157.76125 102.5625 157.1875 C102.5625 156.1975 102.5625 155.2075 102.5625 154.1875 C101.964375 154.105 101.36625 154.0225 100.75 153.9375 C97.93317727 152.97173221 97.08450868 151.69881433 95.5625 149.1875 C95.5625 148.5275 95.5625 147.8675 95.5625 147.1875 C94.9025 147.1875 94.2425 147.1875 93.5625 147.1875 C93.5625 146.5275 93.5625 145.8675 93.5625 145.1875 C92.9025 145.1875 92.2425 145.1875 91.5625 145.1875 C91.5625 144.5275 91.5625 143.8675 91.5625 143.1875 C90.9025 143.1875 90.2425 143.1875 89.5625 143.1875 C89.2325 141.8675 88.9025 140.5475 88.5625 139.1875 C87.2425 138.8575 85.9225 138.5275 84.5625 138.1875 C84.5625 137.5275 84.5625 136.8675 84.5625 136.1875 C83.9025 136.1875 83.2425 136.1875 82.5625 136.1875 C82.5625 135.5275 82.5625 134.8675 82.5625 134.1875 C81.964375 134.105 81.36625 134.0225 80.75 133.9375 C77.93317727 132.97173221 77.08450868 131.69881433 75.5625 129.1875 C75.5625 128.5275 75.5625 127.8675 75.5625 127.1875 C74.9025 127.1875 74.2425 127.1875 73.5625 127.1875 C73.5625 126.5275 73.5625 125.8675 73.5625 125.1875 C72.964375 125.105 72.36625 125.0225 71.75 124.9375 C68.93317727 123.97173221 68.08450868 122.69881433 66.5625 120.1875 C66.5625 119.5275 66.5625 118.8675 66.5625 118.1875 C65.9025 118.1875 65.2425 118.1875 64.5625 118.1875 C64.5625 117.5275 64.5625 116.8675 64.5625 116.1875 C63.964375 116.105 63.36625 116.0225 62.75 115.9375 C59.93317727 114.97173221 59.08450868 113.69881433 57.5625 111.1875 C57.5625 110.5275 57.5625 109.8675 57.5625 109.1875 C56.9025 109.1875 56.2425 109.1875 55.5625 109.1875 C55.5625 108.5275 55.5625 107.8675 55.5625 107.1875 C54.964375 107.105 54.36625 107.0225 53.75 106.9375 C50.93317727 105.97173221 50.08450868 104.69881433 48.5625 102.1875 C48.5625 101.5275 48.5625 100.8675 48.5625 100.1875 C47.9025 100.1875 47.2425 100.1875 46.5625 100.1875 C46.5625 99.5275 46.5625 98.8675 46.5625 98.1875 C45.9025 98.1875 45.2425 98.1875 44.5625 98.1875 C44.5625 97.5275 44.5625 96.8675 44.5625 96.1875 C43.9025 96.1875 43.2425 96.1875 42.5625 96.1875 C42.2325 94.8675 41.9025 93.5475 41.5625 92.1875 C40.2425 91.8575 38.9225 91.5275 37.5625 91.1875 C37.5625 90.5275 37.5625 89.8675 37.5625 89.1875 C36.9025 89.1875 36.2425 89.1875 35.5625 89.1875 C35.5625 88.5275 35.5625 87.8675 35.5625 87.1875 C34.964375 87.105 34.36625 87.0225 33.75 86.9375 C30.93317727 85.97173221 30.08450868 84.69881433 28.5625 82.1875 C28.5625 81.5275 28.5625 80.8675 28.5625 80.1875 C27.9025 80.1875 27.2425 80.1875 26.5625 80.1875 C26.5625 79.5275 26.5625 78.8675 26.5625 78.1875 C25.964375 78.105 25.36625 78.0225 24.75 77.9375 C21.93317727 76.97173221 21.08450868 75.69881433 19.5625 73.1875 C19.5625 72.5275 19.5625 71.8675 19.5625 71.1875 C18.9025 71.1875 18.2425 71.1875 17.5625 71.1875 C17.5625 70.5275 17.5625 69.8675 17.5625 69.1875 C16.964375 69.105 16.36625 69.0225 15.75 68.9375 C12.93317727 67.97173221 12.08450868 66.69881433 10.5625 64.1875 C10.5625 63.5275 10.5625 62.8675 10.5625 62.1875 C9.9025 62.1875 9.2425 62.1875 8.5625 62.1875 C8.5625 61.5275 8.5625 60.8675 8.5625 60.1875 C7.964375 60.105 7.36625 60.0225 6.75 59.9375 C3.93317727 58.97173221 3.08450868 57.69881433 1.5625 55.1875 C1.5625 54.5275 1.5625 53.8675 1.5625 53.1875 C0.9025 53.1875 0.2425 53.1875 -0.4375 53.1875 C-0.4375 52.5275 -0.4375 51.8675 -0.4375 51.1875 C-1.0975 51.1875 -1.7575 51.1875 -2.4375 51.1875 C-2.4375 50.5275 -2.4375 49.8675 -2.4375 49.1875 C-3.0975 49.1875 -3.7575 49.1875 -4.4375 49.1875 C-4.7675 47.8675 -5.0975 46.5475 -5.4375 45.1875 C-6.7575 44.8575 -8.0775 44.5275 -9.4375 44.1875 C-9.4375 43.5275 -9.4375 42.8675 -9.4375 42.1875 C-10.0975 42.1875 -10.7575 42.1875 -11.4375 42.1875 C-11.4375 41.5275 -11.4375 40.8675 -11.4375 40.1875 C-12.035625 40.105 -12.63375 40.0225 -13.25 39.9375 C-16.06682273 38.97173221 -16.91549132 37.69881433 -18.4375 35.1875 C-18.4375 34.5275 -18.4375 33.8675 -18.4375 33.1875 C-19.0975 33.1875 -19.7575 33.1875 -20.4375 33.1875 C-20.4375 32.1975 -20.4375 31.2075 -20.4375 30.1875 C-21.0975 30.1875 -21.7575 30.1875 -22.4375 30.1875 C-22.4375 25.2375 -22.4375 20.2875 -22.4375 15.1875 C-21.1175 14.8575 -19.7975 14.5275 -18.4375 14.1875 C-18.4375 13.5275 -18.4375 12.8675 -18.4375 12.1875 C-17.7775 12.1875 -17.1175 12.1875 -16.4375 12.1875 C-16.1075 10.8675 -15.7775 9.5475 -15.4375 8.1875 C-14.7775 8.1875 -14.1175 8.1875 -13.4375 8.1875 C-13.4375 7.5275 -13.4375 6.8675 -13.4375 6.1875 C-12.7775 6.1875 -12.1175 6.1875 -11.4375 6.1875 C-11.4375 5.5275 -11.4375 4.8675 -11.4375 4.1875 C-10.1175 3.8575 -8.7975 3.5275 -7.4375 3.1875 C-7.4375 2.5275 -7.4375 1.8675 -7.4375 1.1875 C-4.66697819 0.26399273 -2.87061242 0.02420415 0 0 Z " fill="#FEFBFB" transform="translate(89.4375,63.8125)"/>
<path d="M0 0 C8.63696151 -0.37734298 14.18254403 -0.4025151 20.875 5.5625 C23 8 23 8 23 10 C23.66 10 24.32 10 25 10 C25 10.66 25 11.32 25 12 C25.66 12 26.32 12 27 12 C27 12.66 27 13.32 27 14 C27.66 14 28.32 14 29 14 C30.65309295 20.8190084 30.59520364 25.85819379 27 32 C26.34 32 25.68 32 25 32 C25 32.66 25 33.32 25 34 C24.34 34 23.68 34 23 34 C23 34.66 23 35.32 23 36 C22.38125 36.0825 21.7625 36.165 21.125 36.25 C18.82530563 36.78131326 18.82530563 36.78131326 18.0625 38.9375 C17 41 17 41 14.375 42.25 C13.59125 42.4975 12.8075 42.745 12 43 C12 43.66 12 44.32 12 45 C2.58997722 45.3690205 2.58997722 45.3690205 -2 43 C-2 42.34 -2 41.68 -2 41 C-3.32 40.67 -4.64 40.34 -6 40 C-6 39.34 -6 38.68 -6 38 C-6.66 38 -7.32 38 -8 38 C-8.33 36.68 -8.66 35.36 -9 34 C-9.66 34 -10.32 34 -11 34 C-11 33.34 -11 32.68 -11 32 C-12.32 31.67 -13.64 31.34 -15 31 C-15 29.68 -15 28.36 -15 27 C-15.66 27 -16.32 27 -17 27 C-17 23.7 -17 20.4 -17 17 C-16.34 17 -15.68 17 -15 17 C-15 16.01 -15 15.02 -15 14 C-14.071875 13.87625 -14.071875 13.87625 -13.125 13.75 C-10.83911206 13.19416524 -10.83911206 13.19416524 -9.8125 11.0625 C-9.544375 10.381875 -9.27625 9.70125 -9 9 C-8.67 8.34 -8.34 7.68 -8 7 C-7.34 7 -6.68 7 -6 7 C-6 6.34 -6 5.68 -6 5 C-4.68 4.67 -3.36 4.34 -2 4 C-2 3.34 -2 2.68 -2 2 C-1.34 2 -0.68 2 0 2 C0 1.34 0 0.68 0 0 Z " fill="#FEF8F8" transform="translate(196,65)"/>
<path d="M0 0 C1.46373047 0.02707031 1.46373047 0.02707031 2.95703125 0.0546875 C3.69308594 0.07789063 4.42914063 0.10109375 5.1875 0.125 C5.1875 1.115 5.1875 2.105 5.1875 3.125 C5.8475 3.125 6.5075 3.125 7.1875 3.125 C7.1875 3.785 7.1875 4.445 7.1875 5.125 C8.1465625 5.5271875 8.1465625 5.5271875 9.125 5.9375 C11.1875 7.125 11.1875 7.125 12.1875 10.125 C12.8475 10.125 13.5075 10.125 14.1875 10.125 C14.1875 10.785 14.1875 11.445 14.1875 12.125 C14.8475 12.125 15.5075 12.125 16.1875 12.125 C16.1875 12.785 16.1875 13.445 16.1875 14.125 C16.826875 14.41375 17.46625 14.7025 18.125 15 C20.1875 16.125 20.1875 16.125 21.1875 18.125 C21.62009736 22.82533673 21.72936317 26.89349279 19.8125 31.25 C19.27625 31.86875 18.74 32.4875 18.1875 33.125 C17.5275 33.125 16.8675 33.125 16.1875 33.125 C16.1875 33.785 16.1875 34.445 16.1875 35.125 C15.5275 35.125 14.8675 35.125 14.1875 35.125 C14.1875 35.785 14.1875 36.445 14.1875 37.125 C12.2075 37.62 12.2075 37.62 10.1875 38.125 C9.8575 39.775 9.5275 41.425 9.1875 43.125 C3.87851411 45.36036248 -1.13540814 45.75885006 -6.8125 45.125 C-10.4375 43.625 -10.4375 43.625 -12.8125 42.125 C-12.8125 41.465 -12.8125 40.805 -12.8125 40.125 C-13.410625 40.0425 -14.00875 39.96 -14.625 39.875 C-17.44182273 38.90923221 -18.29049132 37.63631433 -19.8125 35.125 C-19.8125 34.465 -19.8125 33.805 -19.8125 33.125 C-20.4725 33.125 -21.1325 33.125 -21.8125 33.125 C-21.8125 32.135 -21.8125 31.145 -21.8125 30.125 C-22.4725 30.125 -23.1325 30.125 -23.8125 30.125 C-23.8125 25.175 -23.8125 20.225 -23.8125 15.125 C-23.1525 15.125 -22.4925 15.125 -21.8125 15.125 C-21.8125 14.465 -21.8125 13.805 -21.8125 13.125 C-21.1525 13.125 -20.4925 13.125 -19.8125 13.125 C-19.4825 11.805 -19.1525 10.485 -18.8125 9.125 C-17.4925 8.795 -16.1725 8.465 -14.8125 8.125 C-14.8125 7.465 -14.8125 6.805 -14.8125 6.125 C-14.1525 6.125 -13.4925 6.125 -12.8125 6.125 C-12.8125 5.465 -12.8125 4.805 -12.8125 4.125 C-12.1525 4.125 -11.4925 4.125 -10.8125 4.125 C-10.8125 3.465 -10.8125 2.805 -10.8125 2.125 C-7.04027911 0.37336544 -4.145861 -0.09990027 0 0 Z " fill="#FEF9F9" transform="translate(90.8125,177.875)"/>
<path d="M0 0 C1.32 0.33 2.64 0.66 4 1 C4 1.66 4 2.32 4 3 C8.62 3.66 13.24 4.32 18 5 C18 4.34 18 3.68 18 3 C19.98 2.01 21.96 1.02 24 0 C24 0.66 24 1.32 24 2 C23.34 2 22.68 2 22 2 C22 2.66 22 3.32 22 4 C21.34 4 20.68 4 20 4 C20 4.66 20 5.32 20 6 C15.05 6 10.1 6 5 6 C5 5.34 5 4.68 5 4 C4.34 4 3.68 4 3 4 C3 3.34 3 2.68 3 2 C2.01 2 1.02 2 0 2 C0 1.34 0 0.68 0 0 Z " fill="#F88A8A" transform="translate(190,105)"/>
<path d="M0 0 C0.556875 0.16242188 1.11375 0.32484375 1.6875 0.4921875 C4.19228372 1.04222447 6.437481 1.13281256 9 1.125 C9.845625 1.12757813 10.69125 1.13015625 11.5625 1.1328125 C13.84698944 1.00833711 15.80991574 0.63877457 18 0 C18 0.66 18 1.32 18 2 C17.34 2 16.68 2 16 2 C16 2.66 16 3.32 16 4 C11.71 4 7.42 4 3 4 C3 3.34 3 2.68 3 2 C2.01 2 1.02 2 0 2 C0 1.34 0 0.68 0 0 Z " fill="#F89393" transform="translate(80,221)"/>
<path d="M0 0 C0.66 0 1.32 0 2 0 C0.50902342 3.7952131 -1.75700849 5.61042731 -5 8 C-5.66 7.67 -6.32 7.34 -7 7 C-5.625 5.5 -5.625 5.5 -4 4 C-3.34 4 -2.68 4 -2 4 C-2 3.34 -2 2.68 -2 2 C-1.34 2 -0.68 2 0 2 C0 1.34 0 0.68 0 0 Z " fill="#F87C7C" transform="translate(221,97)"/>
</svg>
